<svg version="1.2" xmlns="http://www.w3.org/2000/svg" viewBox="0 0 1317 1317" width="125" height="125">
	<style>
		.s0 { fill: #ff5e6b } 
		.s1 { fill: #0a0909 } 
	</style>
	<g id="Layer 1">
		<g id="&lt;Group&gt;">
			<path id="&lt;Compound Path&gt;" fill-rule="evenodd" class="s0" d="m1007.91 815.67l2.38 149.76c0.49 30.77-24.06 56.12-54.84 56.6l-261.77 4.17 0.46 29.02 5.22-0.08c15.39-0.25 28.06 12.03 28.31 27.41l1.03 65.01c0.25 15.39-12.03 28.06-27.42 28.31l-174.13 2.76c-15.38 0.25-28.06-12.03-28.3-27.41l-0.45-28.14-167.73 42.86 1.14 4.49c1.52 5.96-2.07 12.02-8.03 13.55l-104.41 26.67c-5.96 1.53-12.02-2.07-13.55-8.03l-9.83-38.49c-1.52-5.96 2.07-12.03 8.03-13.55l104.41-26.68c5.96-1.52 12.02 2.08 13.55 8.04l0.92 3.63 174.99-44.71-0.07-4.65c-0.25-15.39 12.03-28.06 27.41-28.31l5.23-0.08-0.46-29.02-261.78 4.16c-30.77 0.49-56.12-24.06-56.61-54.83l-0.85-53.4-17.7 0.28c-13.94 0.22-25.43-10.91-25.65-24.85l-0.39-24.67-45.57 0.73c-10.09 0.16-18.41-7.9-18.57-18l-1.08-67.91c-0.16-10.1 7.89-18.41 17.99-18.57l45.57-0.73-0.4-24.67c-0.22-13.94 10.91-25.42 24.85-25.65l17.7-0.28-1.13-71.49-66.9-6.22-0.3 3.27c-0.41 4.34-4.25 7.53-8.6 7.13l-76.07-7.07c-4.34-0.41-7.53-4.25-7.13-8.6l2.61-28.04c0.4-4.34 4.25-7.54 8.59-7.13l76.07 7.07c4.35 0.4 7.54 4.25 7.13 8.59l-0.24 2.65 64.48 6-0.7-43.93c-56.54-40.01-93.92-105.48-95.1-180.05-1.98-124.16 97.08-226.42 221.24-228.4 124.17-1.97 226.43 97.09 228.4 221.25 0.72 44.96-11.87 87.02-34.05 122.51l84.16-1.33c-45.8-70.85-54.46-163.23-14.72-244.55 60.33-123.48 209.34-174.68 332.82-114.34 123.49 60.33 174.68 209.34 114.35 332.82-10.96 22.43-24.88 42.44-41.01 59.87 1.54 4.96 2.44 10.21 2.53 15.67l1.75 110.28 63.57-1.01 216.35-164.45 7.34 461.25-221.48-157.5zm-0.92-422.19l-16.42 1.13c-1.63 21.07-7.13 42.18-16.97 62.32-9.84 20.13-23.11 37.45-38.73 51.68l1.89 2.81 10.57-0.17c11.7-0.19 22.6 3.26 31.67 9.28 12.09-13.91 22.47-29.32 30.62-46 8.91-18.24 15.12-37.6 18.51-57.45 2.21-12.9-8.09-24.51-21.14-23.6zm-83.56-169l-7.21 14.75c37.02 25.31 61.65 63.39 70.84 105.24l16.37-1.13c13.08-0.91 21.66-13.86 17.67-26.34-12.34-38.63-35.52-73.07-66.62-98.99-10.07-8.4-25.3-5.31-31.05 6.47zm-188.09-12.13l9.16 13.61c38.66-18.47 83.84-22.45 126.56-8.8l7.21-14.75c5.75-11.78-1.18-25.69-13.98-28.47-39.57-8.6-80.98-5.72-119.03 8.28-12.3 4.52-17.25 19.25-9.92 30.13zm-104.67 156.79l16.42-1.14c1.63-21.06 7.13-42.18 16.97-62.31 9.84-20.14 23.11-37.45 38.73-51.68l-9.2-13.66c-7.31-10.85-22.79-11.84-31.61-2.17-13.57 14.87-25.03 31.68-33.94 49.91-8.91 18.23-15.12 37.6-18.51 57.45-2.21 12.9 8.09 24.51 21.14 23.6zm24.22 146.76l55.37-0.88c-30.8-24.97-51.43-59.4-59.66-96.87l-16.37 1.13c-13.08 0.91-21.66 13.86-17.67 26.34 8.22 25.74 21.35 49.54 38.33 70.28zm-174.29 2.77c0.73-6.92-2.43-14.03-9.12-17.76l-12.96-7.21c-7.29 9.5-15.65 18.13-24.91 25.72zm-1.78-179.27c7.31 17.63 11.53 36.89 11.85 57.14 0.32 20.24-3.28 39.63-10.03 57.48l13 7.24c10.33 5.74 23.2 0.2 26.35-11.2 4.85-17.54 7.19-35.76 6.9-54.1-0.29-18.33-3.22-36.48-8.61-53.85-3.51-11.29-16.55-16.43-26.7-10.35zm-123.75-109.55l0.24 14.84c40.18 5.22 75.61 25.81 100.15 55.75l12.73-7.61c10.16-6.09 11.77-20.03 3.44-28.46-25.76-26.05-58.53-44.3-94.2-52.44-11.54-2.64-22.54 6.08-22.36 17.92zm-156.46 67.26l12.96 7.21c23.57-30.7 58.33-52.41 98.32-58.91l-0.23-14.83c-0.19-11.85-11.46-20.22-22.92-17.21-35.39 9.27-67.56 28.55-92.48 55.41-8.06 8.69-6 22.57 4.35 28.33zm-7.33 161.51c-7.32-17.63-11.53-36.89-11.86-57.14-0.32-20.24 3.28-39.63 10.03-57.48l-13-7.24c-10.33-5.75-23.2-0.2-26.35 11.2-4.84 17.54-7.19 35.77-6.9 54.1 0.29 18.33 3.22 36.48 8.62 53.85 3.51 11.29 16.55 16.43 26.69 10.36zm7.19 75.02c4.96 5.01 10.25 9.64 15.7 14.06 6.84-10.6 17.18-18.75 29.41-22.77-10.78-7.84-20.49-17.06-28.94-27.36l-12.72 7.62c-10.16 6.08-11.77 20.03-3.45 28.45z"/>
			<path id="&lt;Compound Path&gt;" fill-rule="evenodd" class="s1" d="m975.01 836.42l2.38 149.75c0.49 30.78-24.06 56.12-54.83 56.61l-261.78 4.16 0.46 29.02 5.23-0.08c15.39-0.24 28.06 12.03 28.3 27.42l1.04 65.01c0.24 15.38-12.04 28.06-27.42 28.3l-174.13 2.77c-15.39 0.24-28.06-12.03-28.31-27.42l-0.44-28.13-167.74 42.86 1.14 4.48c1.53 5.96-2.07 12.03-8.03 13.55l-104.4 26.68c-5.96 1.52-12.03-2.07-13.55-8.03l-9.84-38.5c-1.52-5.96 2.08-12.02 8.04-13.54l104.4-26.68c5.96-1.52 12.03 2.07 13.55 8.03l0.93 3.64 174.98-44.72-0.07-4.65c-0.24-15.38 12.03-28.06 27.42-28.3l5.22-0.08-0.46-29.03-261.78 4.17c-30.77 0.49-56.11-24.07-56.6-54.84l-0.85-53.4-17.71 0.28c-13.94 0.22-25.42-10.9-25.65-24.85l-0.39-24.66-45.56 0.72c-10.1 0.16-18.42-7.89-18.58-17.99l-1.08-67.91c-0.16-10.1 7.9-18.42 18-18.58l45.56-0.72-0.39-24.67c-0.22-13.95 10.9-25.43 24.85-25.65l17.7-0.28-1.14-71.5-66.89-6.22-0.31 3.27c-0.4 4.34-4.25 7.54-8.59 7.13l-76.07-7.07c-4.34-0.4-7.54-4.25-7.13-8.59l2.6-28.05c0.41-4.34 4.26-7.53 8.6-7.13l76.07 7.07c4.34 0.41 7.53 4.25 7.13 8.6l-0.25 2.65 64.49 5.99-0.7-43.92c-56.55-40.01-93.92-105.49-95.11-180.05-1.97-124.17 97.08-226.43 221.25-228.4 124.16-1.97 226.42 97.08 228.4 221.25 0.71 44.96-11.88 87.01-34.05 122.51l84.15-1.34c-45.8-70.84-54.45-163.23-14.72-244.55 60.33-123.48 209.35-174.67 332.83-114.34 123.48 60.33 174.67 209.34 114.34 332.83-10.96 22.43-24.88 42.44-41.01 59.87 1.55 4.96 2.45 10.2 2.54 15.66l1.75 110.28 63.56-1.01 216.36-164.45 7.33 461.25-221.48-157.49zm-0.91-422.2l-16.43 1.14c-1.62 21.06-7.13 42.18-16.96 62.31-9.84 20.14-23.12 37.46-38.74 51.68l1.9 2.81 10.57-0.16c11.7-0.19 22.6 3.26 31.66 9.28 12.09-13.91 22.47-29.32 30.63-46.01 8.91-18.23 15.12-37.6 18.51-57.45 2.2-12.9-8.09-24.5-21.14-23.6zm-83.57-169l-7.2 14.76c37.01 25.3 61.64 63.39 70.83 105.23l16.38-1.13c13.07-0.9 21.65-13.85 17.67-26.34-12.35-38.62-35.52-73.06-66.62-98.99-10.07-8.39-25.3-5.3-31.06 6.47zm-188.09-12.13l9.17 13.61c38.66-18.46 83.84-22.44 126.55-8.79l7.21-14.75c5.75-11.78-1.17-25.69-13.98-28.48-39.56-8.6-80.97-5.72-119.03 8.28-12.3 4.53-17.24 19.26-9.92 30.13zm-104.67 156.8l16.43-1.14c1.62-21.06 7.13-42.18 16.97-62.32 9.83-20.13 23.11-37.45 38.73-51.68l-9.2-13.65c-7.31-10.86-22.79-11.84-31.61-2.18-13.58 14.88-25.04 31.68-33.95 49.91-8.91 18.24-15.12 37.61-18.51 57.46-2.2 12.89 8.09 24.5 21.14 23.6zm24.23 146.76l55.36-0.88c-30.8-24.97-51.42-59.41-59.65-96.88l-16.38 1.14c-13.07 0.9-21.65 13.85-17.66 26.34 8.22 25.73 21.35 49.54 38.33 70.28zm-174.3 2.77c0.74-6.92-2.42-14.04-9.11-17.76l-12.96-7.21c-7.29 9.49-15.65 18.12-24.91 25.71zm-1.79-179.27c7.32 17.64 11.53 36.9 11.86 57.14 0.32 20.25-3.28 39.64-10.03 57.49l13 7.23c10.33 5.75 23.2 0.2 26.35-11.19 4.84-17.54 7.19-35.77 6.9-54.1-0.29-18.34-3.22-36.48-8.62-53.86-3.51-11.29-16.55-16.42-26.69-10.35zm-123.75-109.54l0.23 14.83c40.18 5.23 75.62 25.82 100.16 55.76l12.72-7.62c10.16-6.08 11.77-20.03 3.45-28.45-25.76-26.05-58.53-44.3-94.2-52.45-11.55-2.64-22.55 6.09-22.36 17.93zm-156.47 67.26l12.96 7.21c23.58-30.71 58.34-52.41 98.33-58.91l-0.24-14.84c-0.18-11.84-11.46-20.21-22.91-17.21-35.4 9.28-67.57 28.56-92.49 55.42-8.05 8.68-6 22.57 4.35 28.33zm-7.33 161.51c-7.31-17.63-11.53-36.89-11.85-57.14-0.32-20.25 3.28-39.63 10.03-57.49l-13-7.23c-10.33-5.75-23.2-0.2-26.35 11.19-4.85 17.54-7.2 35.77-6.9 54.11 0.29 18.33 3.22 36.47 8.61 53.85 3.51 11.29 16.55 16.42 26.7 10.35zm7.19 75.02c4.96 5.02 10.24 9.64 15.69 14.06 6.84-10.59 17.18-18.74 29.42-22.76-10.78-7.84-20.5-17.06-28.94-27.37l-12.72 7.62c-10.17 6.09-11.78 20.03-3.45 28.45z"/>
		</g>
	</g>
</svg>